<svg width="58" height="49" viewBox="0 0 58 49" fill="none" xmlns="http://www.w3.org/2000/svg">
<mask id="mask0_214_2521" style="mask-type:luminance" maskUnits="userSpaceOnUse" x="0" y="0" width="58" height="49">
<path d="M57.0131 0.603027H0.547852V48.603H57.0131V0.603027Z" fill="white"/>
</mask>
<g mask="url(#mask0_214_2521)">
<path d="M30.7579 6.59182L9.13356 6.64974C5.53723 6.65901 2.62958 9.64775 2.63943 13.3252C2.6487 17.0026 5.57141 19.9763 9.16774 19.967L14.8695 19.9525L16.6379 19.9479H17.2258C17.8785 17.8807 20.9808 9.87944 30.5112 7.29325C31.834 6.93818 33.1858 6.70132 34.5506 6.58545L30.7579 6.59182Z" fill="url(#paint0_linear_214_2521)"/>
<path d="M54.2802 12.3374L45.1095 2.74155C43.8416 1.41516 41.6394 2.07778 41.2762 3.89535L40.8899 5.8305C40.851 6.03642 40.7419 6.2225 40.5813 6.35713C40.4207 6.49176 40.2185 6.56662 40.0089 6.569L35.911 6.57942C35.831 6.57942 35.7511 6.57942 35.6712 6.58348C35.5704 6.58348 35.4696 6.58348 35.37 6.58927C35.2837 6.58927 35.1962 6.59738 35.1128 6.60143C35.0294 6.60549 34.9257 6.60896 34.8325 6.61475C34.6935 6.62344 34.5556 6.63561 34.4178 6.64719L34.2984 6.65646C33.4199 6.73887 32.5487 6.8864 31.692 7.09782C31.4217 7.16501 31.1527 7.23818 30.8851 7.31734C30.8168 7.33761 30.7479 7.35846 30.6795 7.3799C30.2934 7.4996 29.9124 7.63224 29.5367 7.77782C29.4504 7.81141 29.363 7.84616 29.2772 7.88092C28.6496 8.13586 28.0368 8.42592 27.4417 8.74973C27.1903 8.88643 26.943 9.03007 26.6986 9.17835C26.3669 9.37992 26.0418 9.5923 25.7232 9.81549C25.4857 9.98114 25.2521 10.1524 25.0223 10.3292C24.832 10.4764 24.6441 10.6274 24.4588 10.7822C24.2734 10.937 24.0915 11.0955 23.9132 11.2577C23.734 11.4207 23.5583 11.5865 23.3861 11.7553C23.1714 11.9661 22.9619 12.1823 22.7576 12.404C22.6725 12.4967 22.5885 12.5893 22.5051 12.6838C22.3861 12.8177 22.269 12.9529 22.1535 13.0892C21.8419 13.4622 21.5446 13.8484 21.2615 14.2476C21.0495 14.5465 20.8458 14.8523 20.6504 15.1651C20.2583 15.7945 19.904 16.4467 19.5893 17.1182C19.4835 17.3433 19.3821 17.5714 19.2852 17.8023C18.9914 18.5009 18.74 19.2165 18.5323 19.9454C18.4054 20.3913 18.2907 20.8431 18.1952 21.303L15.9408 32.1951L15.4856 34.3961C16.9985 28.717 21.7446 19.4102 36.5597 19.8973C36.6361 19.8973 36.7109 19.9008 36.7879 19.9037C36.8499 19.9037 36.9113 19.8984 36.9738 19.8984C36.9889 19.8984 37.0034 19.8984 37.0184 19.8984C37.1498 19.9065 37.2779 19.9428 37.394 20.0048C37.5101 20.0668 37.6114 20.1531 37.6912 20.2578C37.7709 20.3625 37.8272 20.4832 37.8561 20.6115C37.885 20.7399 37.886 20.8731 37.8589 21.0018L37.801 21.2943C37.4065 23.2683 39.498 24.7783 41.1847 23.7375L53.8301 15.9366C55.0801 15.1639 55.2996 13.4037 54.2802 12.3374Z" fill="white"/>
<path d="M30.5088 7.28946C20.9784 9.87564 17.8762 17.8769 17.2234 19.9441L18.5336 19.9406C18.7413 19.2118 18.9928 18.4961 19.2865 17.7975C19.3835 17.5659 19.4848 17.3378 19.5906 17.1135C19.9053 16.442 20.2596 15.7898 20.6517 15.1604C20.8468 14.8484 21.0504 14.5426 21.2628 14.2429C21.5455 13.8444 21.8428 13.4583 22.1548 13.0845C22.2706 12.9466 22.3878 12.8115 22.5064 12.679C22.5898 12.5846 22.6738 12.492 22.7589 12.3993C22.9636 12.178 23.1731 11.9618 23.3874 11.7506C23.56 11.5814 23.7357 11.4156 23.9145 11.253C24.0932 11.0904 24.2751 10.9319 24.4601 10.7775C24.6447 10.623 24.8325 10.472 25.0237 10.3245C25.253 10.1473 25.4866 9.97604 25.7245 9.81077C26.0423 9.58835 26.3674 9.37598 26.6999 9.17364C26.9443 9.02536 27.1916 8.88403 27.443 8.74502C28.0381 8.42121 28.6509 8.13114 29.2786 7.8762C29.3649 7.84145 29.4523 7.80669 29.538 7.7731C29.9141 7.6283 30.2951 7.49566 30.6808 7.37518C30.7492 7.35375 30.8181 7.3329 30.8864 7.31262C31.1533 7.23308 31.4222 7.15991 31.6933 7.0931C31.8873 7.04503 32.0831 7.00159 32.2795 6.95988C32.3374 6.94714 32.4011 6.93556 32.4619 6.92339C32.6003 6.89559 32.7388 6.86895 32.8784 6.84462L33.0863 6.80929C33.2257 6.78689 33.3657 6.76585 33.5062 6.74615C33.5688 6.73747 33.6308 6.7282 33.6933 6.72009C33.8943 6.6946 34.0988 6.67086 34.2992 6.65174C34.8309 6.60251 35.369 6.57587 35.9111 6.57471L34.5488 6.57818C33.1837 6.69515 31.8317 6.93318 30.5088 7.28946Z" fill="#098979"/>
<path d="M35.913 6.57861C35.8331 6.57861 35.7538 6.57861 35.6738 6.58267C35.7514 6.58151 35.8314 6.57861 35.913 6.57861Z" fill="#098979"/>
<path d="M36.371 19.8876C21.7065 19.4868 16.9934 28.7363 15.4869 34.3911C15.4672 34.4653 15.2778 35.3688 14.9331 37.0277C14.6368 38.4335 14.7971 39.8972 15.3907 41.2056C15.9491 35.5484 19.0577 20.3081 36.371 19.8876Z" fill="#098979"/>
<path d="M36.975 19.891C36.9125 19.891 36.8511 19.8945 36.7891 19.8963C36.712 19.8934 36.6373 19.8922 36.5609 19.8899C36.4966 19.8899 36.434 19.8899 36.3709 19.8853C19.0576 20.3081 15.949 35.5483 15.3906 41.2061C15.9708 42.494 16.946 43.5638 18.1749 44.2603C19.1356 44.8011 20.2204 45.083 21.3229 45.0781C24.3928 45.07 27.0438 42.869 27.6798 39.7957L30.7241 25.0883C30.9344 24.0476 31.396 23.074 32.0687 22.2524C32.7413 21.4309 33.6047 20.7863 34.5834 20.3747C34.6309 20.3556 34.7705 20.2948 34.9941 20.2229C35.6512 20.0194 36.3336 19.9094 37.0213 19.8963C37.0046 19.8951 36.9901 19.891 36.975 19.891Z" fill="url(#paint1_linear_214_2521)"/>
</g>
<defs>
<linearGradient id="paint0_linear_214_2521" x1="2.63667" y1="13.3191" x2="34.5651" y2="13.2355" gradientUnits="userSpaceOnUse">
<stop stop-color="#32FCE5"/>
<stop offset="0.15" stop-color="#22EDD8"/>
<stop offset="0.38" stop-color="#0FDBC8"/>
<stop offset="0.63" stop-color="#04D0BE"/>
<stop offset="0.88" stop-color="#00CCBB"/>
</linearGradient>
<linearGradient id="paint1_linear_214_2521" x1="29.0135" y1="20.9049" x2="21.2306" y2="44.1228" gradientUnits="userSpaceOnUse">
<stop stop-color="#32FCE5"/>
<stop offset="0.15" stop-color="#22EDD8"/>
<stop offset="0.38" stop-color="#0FDBC8"/>
<stop offset="0.63" stop-color="#04D0BE"/>
<stop offset="0.88" stop-color="#00CCBB"/>
</linearGradient>
</defs>
</svg>
