<svg width="187" height="215" viewBox="0 0 187 215" fill="none" xmlns="http://www.w3.org/2000/svg">
<rect x="0.0402527" y="0.494873" width="186.919" height="213.62" rx="24" fill="#171717" fill-opacity="0.45"/>
<path fill-rule="evenodd" clip-rule="evenodd" d="M166.879 66.0263C166.879 54.1529 157.254 44.5276 145.381 44.5276H41.47C29.5966 44.5276 19.9713 54.1529 19.9713 66.0263V148.438C19.9713 160.312 29.5967 169.937 41.4701 169.937H145.381C157.254 169.937 166.879 160.312 166.879 148.438V66.0263ZM166.879 66.0274C166.879 54.154 157.254 44.5286 145.38 44.5286H138.214C126.341 44.5286 116.715 54.154 116.715 66.0274V73.1936C116.715 85.0671 126.341 94.6924 138.214 94.6924H145.38C157.254 94.6924 166.879 85.0671 166.879 73.1936V66.0274Z" fill="#181717"/>
<path d="M58.463 73.6201V82.5359H57.2996V73.6201H58.463ZM61.3288 73.6201V74.5876H54.4399V73.6201H61.3288ZM61.5677 79.2966V79.1557C61.5677 78.6781 61.6371 78.2352 61.7759 77.8269C61.9146 77.4146 62.1147 77.0574 62.376 76.7553C62.6372 76.4491 62.9536 76.2124 63.3251 76.045C63.6966 75.8735 64.113 75.7878 64.5743 75.7878C65.0397 75.7878 65.4581 75.8735 65.8296 76.045C66.2052 76.2124 66.5236 76.4491 66.7849 76.7553C67.0502 77.0574 67.2523 77.4146 67.3911 77.8269C67.5299 78.2352 67.5993 78.6781 67.5993 79.1557V79.2966C67.5993 79.7742 67.5299 80.2171 67.3911 80.6254C67.2523 81.0336 67.0502 81.3908 66.7849 81.697C66.5236 81.9991 66.2072 82.2358 65.8357 82.4073C65.4683 82.5747 65.0519 82.6584 64.5865 82.6584C64.1211 82.6584 63.7027 82.5747 63.3312 82.4073C62.9597 82.2358 62.6413 81.9991 62.376 81.697C62.1147 81.3908 61.9146 81.0336 61.7759 80.6254C61.6371 80.2171 61.5677 79.7742 61.5677 79.2966ZM62.7005 79.1557V79.2966C62.7005 79.6272 62.7393 79.9395 62.8168 80.2335C62.8944 80.5233 63.0108 80.7805 63.1659 81.005C63.3251 81.2295 63.5231 81.4071 63.7599 81.5378C63.9966 81.6643 64.2722 81.7276 64.5865 81.7276C64.8968 81.7276 65.1683 81.6643 65.401 81.5378C65.6377 81.4071 65.8337 81.2295 65.9888 81.005C66.1439 80.7805 66.2603 80.5233 66.3379 80.2335C66.4195 79.9395 66.4603 79.6272 66.4603 79.2966V79.1557C66.4603 78.8291 66.4195 78.5209 66.3379 78.2311C66.2603 77.9371 66.1419 77.6779 65.9827 77.4534C65.8276 77.2248 65.6316 77.0452 65.3948 76.9145C65.1621 76.7839 64.8886 76.7186 64.5743 76.7186C64.264 76.7186 63.9905 76.7839 63.7537 76.9145C63.521 77.0452 63.3251 77.2248 63.1659 77.4534C63.0108 77.6779 62.8944 77.9371 62.8168 78.2311C62.7393 78.5209 62.7005 78.8291 62.7005 79.1557ZM71.7939 75.9103V76.7798H68.2116V75.9103H71.7939ZM69.4241 74.2998H70.5569V80.8948C70.5569 81.1193 70.5916 81.2887 70.661 81.403C70.7304 81.5173 70.8203 81.5929 70.9305 81.6296C71.0407 81.6664 71.1591 81.6847 71.2856 81.6847C71.3795 81.6847 71.4775 81.6766 71.5796 81.6602C71.6857 81.6398 71.7653 81.6235 71.8184 81.6112L71.8245 82.5359C71.7347 82.5645 71.6163 82.591 71.4693 82.6155C71.3265 82.6441 71.153 82.6584 70.9488 82.6584C70.6712 82.6584 70.4161 82.6032 70.1834 82.493C69.9507 82.3828 69.765 82.1991 69.6262 81.9419C69.4915 81.6806 69.4241 81.3296 69.4241 80.8887V74.2998ZM77.0295 81.403V77.9923C77.0295 77.731 76.9764 77.5044 76.8703 77.3125C76.7682 77.1166 76.6131 76.9655 76.4049 76.8594C76.1967 76.7533 75.9395 76.7002 75.6333 76.7002C75.3476 76.7002 75.0965 76.7492 74.8801 76.8472C74.6679 76.9451 74.5005 77.0737 74.378 77.2329C74.2596 77.3922 74.2004 77.5636 74.2004 77.7473H73.0676C73.0676 77.5105 73.1288 77.2758 73.2513 77.0431C73.3738 76.8104 73.5493 76.6002 73.7779 76.4124C74.0106 76.2205 74.2882 76.0695 74.6107 75.9593C74.9373 75.8449 75.3006 75.7878 75.7007 75.7878C76.1824 75.7878 76.607 75.8694 76.9744 76.0327C77.3459 76.196 77.6357 76.443 77.8439 76.7737C78.0562 77.1003 78.1623 77.5105 78.1623 78.0045V81.0907C78.1623 81.3112 78.1807 81.5459 78.2174 81.7949C78.2583 82.044 78.3175 82.2583 78.395 82.4379V82.5359H77.2132C77.156 82.4053 77.1111 82.2318 77.0785 82.0154C77.0458 81.7949 77.0295 81.5908 77.0295 81.403ZM77.2254 78.5189L77.2377 79.3149H76.0926C75.7701 79.3149 75.4823 79.3415 75.2292 79.3945C74.9761 79.4435 74.7638 79.519 74.5923 79.6211C74.4209 79.7232 74.2902 79.8518 74.2004 80.0069C74.1106 80.1579 74.0657 80.3355 74.0657 80.5396C74.0657 80.7478 74.1127 80.9377 74.2065 81.1091C74.3004 81.2806 74.4413 81.4173 74.6291 81.5194C74.8209 81.6174 75.0557 81.6664 75.3333 81.6664C75.6803 81.6664 75.9864 81.5929 76.2518 81.4459C76.5171 81.2989 76.7274 81.1193 76.8825 80.907C77.0417 80.6948 77.1275 80.4886 77.1397 80.2886L77.6235 80.8336C77.5949 81.005 77.5173 81.1948 77.3908 81.403C77.2642 81.6112 77.0948 81.8113 76.8825 82.0031C76.6743 82.1909 76.4253 82.3481 76.1355 82.4747C75.8497 82.5971 75.5272 82.6584 75.1679 82.6584C74.7189 82.6584 74.3249 82.5706 73.9861 82.395C73.6514 82.2195 73.3901 81.9848 73.2023 81.6908C73.0186 81.3928 72.9267 81.0601 72.9267 80.6927C72.9267 80.3376 72.9961 80.0253 73.1349 79.7558C73.2737 79.4823 73.4738 79.2557 73.735 79.0761C73.9963 78.8924 74.3106 78.7536 74.6781 78.6597C75.0455 78.5658 75.4557 78.5189 75.9089 78.5189H77.2254ZM81.1751 73.1302V82.5359H80.0361V73.1302H81.1751ZM52.9948 96.403V92.9923C52.9948 92.731 52.9417 92.5044 52.8355 92.3125C52.7335 92.1166 52.5784 91.9655 52.3702 91.8594C52.162 91.7533 51.9048 91.7002 51.5986 91.7002C51.3128 91.7002 51.0618 91.7492 50.8454 91.8472C50.6331 91.9451 50.4658 92.0737 50.3433 92.2329C50.2249 92.3922 50.1657 92.5636 50.1657 92.7473H49.0329C49.0329 92.5105 49.0941 92.2758 49.2166 92.0431C49.339 91.8104 49.5146 91.6002 49.7432 91.4124C49.9759 91.2205 50.2535 91.0695 50.576 90.9593C50.9026 90.8449 51.2659 90.7878 51.666 90.7878C52.1477 90.7878 52.5722 90.8694 52.9396 91.0327C53.3111 91.196 53.601 91.443 53.8092 91.7737C54.0215 92.1003 54.1276 92.5105 54.1276 93.0045V96.0907C54.1276 96.3112 54.146 96.5459 54.1827 96.7949C54.2235 97.044 54.2827 97.2583 54.3603 97.4379V97.5359H53.1785C53.1213 97.4053 53.0764 97.2318 53.0437 97.0154C53.0111 96.7949 52.9948 96.5908 52.9948 96.403ZM53.1907 93.5189L53.203 94.3149H52.0579C51.7354 94.3149 51.4476 94.3415 51.1945 94.3945C50.9413 94.4435 50.7291 94.519 50.5576 94.6211C50.3861 94.7232 50.2555 94.8518 50.1657 95.0069C50.0759 95.1579 50.031 95.3355 50.031 95.5396C50.031 95.7478 50.0779 95.9377 50.1718 96.1091C50.2657 96.2806 50.4066 96.4173 50.5943 96.5194C50.7862 96.6174 51.021 96.6664 51.2986 96.6664C51.6455 96.6664 51.9517 96.5929 52.2171 96.4459C52.4824 96.2989 52.6927 96.1193 52.8478 95.907C53.007 95.6948 53.0927 95.4886 53.105 95.2886L53.5887 95.8336C53.5602 96.005 53.4826 96.1948 53.356 96.403C53.2295 96.6112 53.0601 96.8113 52.8478 97.0031C52.6396 97.1909 52.3906 97.3481 52.1007 97.4747C51.815 97.5971 51.4925 97.6584 51.1332 97.6584C50.6842 97.6584 50.2902 97.5706 49.9514 97.395C49.6166 97.2195 49.3554 96.9848 49.1676 96.6908C48.9839 96.3928 48.892 96.0601 48.892 95.6927C48.892 95.3376 48.9614 95.0253 49.1002 94.7558C49.239 94.4823 49.439 94.2557 49.7003 94.0761C49.9616 93.8924 50.2759 93.7536 50.6433 93.6597C51.0107 93.5658 51.421 93.5189 51.8742 93.5189H53.1907ZM57.0363 92.2268V97.5359H55.8973V90.9103H56.975L57.0363 92.2268ZM56.8036 93.972L56.277 93.9536C56.281 93.5005 56.3402 93.0821 56.4545 92.6983C56.5688 92.3105 56.7383 91.9737 56.9628 91.688C57.1873 91.4022 57.467 91.1817 57.8017 91.0266C58.1365 90.8674 58.5243 90.7878 58.9652 90.7878C59.2754 90.7878 59.5612 90.8327 59.8225 90.9225C60.0837 91.0082 60.3103 91.145 60.5022 91.3328C60.694 91.5206 60.843 91.7614 60.9492 92.0554C61.0553 92.3493 61.1084 92.7045 61.1084 93.1208V97.5359H59.9755V93.176C59.9755 92.829 59.9164 92.5514 59.798 92.3432C59.6837 92.135 59.5204 91.9839 59.3081 91.89C59.0958 91.792 58.8468 91.7431 58.561 91.7431C58.2263 91.7431 57.9466 91.8023 57.7221 91.9206C57.4976 92.039 57.3179 92.2023 57.1832 92.4105C57.0485 92.6187 56.9505 92.8575 56.8893 93.127C56.8322 93.3923 56.8036 93.674 56.8036 93.972ZM61.0961 93.3474L60.3368 93.5801C60.3409 93.2168 60.4001 92.8677 60.5144 92.533C60.6328 92.1982 60.8022 91.9002 61.0227 91.639C61.2472 91.3777 61.5227 91.1715 61.8493 91.0205C62.1759 90.8654 62.5495 90.7878 62.9699 90.7878C63.3251 90.7878 63.6394 90.8347 63.913 90.9286C64.1906 91.0225 64.4232 91.1675 64.611 91.3634C64.8029 91.5553 64.9478 91.8023 65.0458 92.1043C65.1438 92.4064 65.1928 92.7657 65.1928 93.1821V97.5359H64.0538V93.1698C64.0538 92.7983 63.9946 92.5105 63.8762 92.3064C63.7619 92.0982 63.5986 91.9533 63.3863 91.8717C63.1781 91.7859 62.9291 91.7431 62.6393 91.7431C62.3902 91.7431 62.1698 91.7859 61.9779 91.8717C61.7861 91.9574 61.6248 92.0758 61.4942 92.2268C61.3635 92.3738 61.2635 92.5432 61.1941 92.7351C61.1288 92.9269 61.0961 93.1311 61.0961 93.3474ZM66.6073 94.2966V94.1557C66.6073 93.6781 66.6767 93.2352 66.8155 92.8269C66.9543 92.4146 67.1543 92.0574 67.4156 91.7553C67.6769 91.4491 67.9932 91.2124 68.3647 91.045C68.7362 90.8735 69.1526 90.7878 69.6139 90.7878C70.0793 90.7878 70.4978 90.8735 70.8692 91.045C71.2448 91.2124 71.5632 91.4491 71.8245 91.7553C72.0899 92.0574 72.2919 92.4146 72.4307 92.8269C72.5695 93.2352 72.6389 93.6781 72.6389 94.1557V94.2966C72.6389 94.7742 72.5695 95.2171 72.4307 95.6254C72.2919 96.0336 72.0899 96.3908 71.8245 96.697C71.5632 96.9991 71.2469 97.2358 70.8754 97.4073C70.508 97.5747 70.0916 97.6584 69.6262 97.6584C69.1608 97.6584 68.7423 97.5747 68.3709 97.4073C67.9994 97.2358 67.6809 96.9991 67.4156 96.697C67.1543 96.3908 66.9543 96.0336 66.8155 95.6254C66.6767 95.2171 66.6073 94.7742 66.6073 94.2966ZM67.7401 94.1557V94.2966C67.7401 94.6272 67.7789 94.9395 67.8565 95.2335C67.934 95.5233 68.0504 95.7805 68.2055 96.005C68.3647 96.2295 68.5627 96.4071 68.7995 96.5378C69.0363 96.6643 69.3118 96.7276 69.6262 96.7276C69.9364 96.7276 70.2079 96.6643 70.4406 96.5378C70.6774 96.4071 70.8733 96.2295 71.0285 96.005C71.1836 95.7805 71.2999 95.5233 71.3775 95.2335C71.4591 94.9395 71.5 94.6272 71.5 94.2966V94.1557C71.5 93.8291 71.4591 93.5209 71.3775 93.2311C71.2999 92.9371 71.1815 92.6779 71.0223 92.4534C70.8672 92.2248 70.6712 92.0452 70.4345 91.9145C70.2018 91.7839 69.9283 91.7186 69.6139 91.7186C69.3037 91.7186 69.0302 91.7839 68.7934 91.9145C68.5607 92.0452 68.3647 92.2248 68.2055 92.4534C68.0504 92.6779 67.934 92.9371 67.8565 93.2311C67.7789 93.5209 67.7401 93.8291 67.7401 94.1557ZM78.1133 96.005V90.9103H79.2523V97.5359H78.1684L78.1133 96.005ZM78.3277 94.6089L78.7992 94.5966C78.7992 95.0375 78.7522 95.4457 78.6583 95.8213C78.5685 96.1928 78.4216 96.5153 78.2174 96.7888C78.0133 97.0623 77.7459 97.2767 77.4153 97.4318C77.0846 97.5828 76.6825 97.6584 76.2089 97.6584C75.8864 97.6584 75.5905 97.6114 75.321 97.5175C75.0557 97.4236 74.8271 97.2787 74.6352 97.0827C74.4433 96.8868 74.2943 96.6317 74.1882 96.3173C74.0861 96.003 74.0351 95.6254 74.0351 95.1845V90.9103H75.1679V95.1967C75.1679 95.4947 75.2006 95.7417 75.2659 95.9377C75.3353 96.1295 75.4272 96.2826 75.5415 96.3969C75.6599 96.5071 75.7905 96.5847 75.9334 96.6296C76.0803 96.6745 76.2314 96.697 76.3865 96.697C76.8682 96.697 77.2499 96.6051 77.5316 96.4214C77.8133 96.2336 78.0154 95.9826 78.1378 95.6682C78.2644 95.3498 78.3277 94.9967 78.3277 94.6089ZM82.112 92.3248V97.5359H80.9791V90.9103H82.0507L82.112 92.3248ZM81.8425 93.972L81.371 93.9536C81.3751 93.5005 81.4425 93.0821 81.5731 92.6983C81.7037 92.3105 81.8875 91.9737 82.1242 91.688C82.361 91.4022 82.6427 91.1817 82.9693 91.0266C83.2999 90.8674 83.6653 90.7878 84.0654 90.7878C84.392 90.7878 84.6859 90.8327 84.9472 90.9225C85.2084 91.0082 85.4309 91.147 85.6146 91.3389C85.8024 91.5308 85.9453 91.7798 86.0433 92.086C86.1412 92.3881 86.1902 92.7575 86.1902 93.1943V97.5359H85.0513V93.1821C85.0513 92.8351 85.0002 92.5575 84.8982 92.3493C84.7961 92.137 84.6471 91.9839 84.4512 91.89C84.2552 91.792 84.0143 91.7431 83.7286 91.7431C83.4469 91.7431 83.1897 91.8023 82.957 91.9206C82.7284 92.039 82.5304 92.2023 82.363 92.4105C82.1998 92.6187 82.0712 92.8575 81.9773 93.127C81.8875 93.3923 81.8425 93.674 81.8425 93.972ZM90.6849 90.9103V91.7798H87.1026V90.9103H90.6849ZM88.3151 89.2998H89.4479V95.8948C89.4479 96.1193 89.4826 96.2887 89.552 96.403C89.6214 96.5173 89.7112 96.5929 89.8215 96.6296C89.9317 96.6664 90.0501 96.6847 90.1766 96.6847C90.2705 96.6847 90.3685 96.6766 90.4706 96.6602C90.5767 96.6398 90.6563 96.6235 90.7094 96.6112L90.7155 97.5359C90.6257 97.5645 90.5073 97.591 90.3603 97.6155C90.2174 97.6441 90.044 97.6584 89.8398 97.6584C89.5622 97.6584 89.3071 97.6032 89.0744 97.493C88.8417 97.3828 88.656 97.1991 88.5172 96.9419C88.3824 96.6806 88.3151 96.3296 88.3151 95.8887V89.2998Z" fill="white"/>
<path d="M49.8823 137.355V139.035H41.3444V137.591L45.4909 133.069C45.9458 132.555 46.3044 132.112 46.5669 131.739C46.8293 131.366 47.013 131.03 47.118 130.733C47.2288 130.43 47.2842 130.135 47.2842 129.849C47.2842 129.447 47.2084 129.094 47.0568 128.791C46.911 128.482 46.6952 128.24 46.4094 128.065C46.1237 127.884 45.7767 127.794 45.3684 127.794C44.896 127.794 44.4995 127.896 44.1787 128.1C43.858 128.304 43.6159 128.587 43.4526 128.948C43.2894 129.304 43.2077 129.712 43.2077 130.173H41.0995C41.0995 129.432 41.2686 128.756 41.6068 128.144C41.9451 127.525 42.435 127.036 43.0765 126.674C43.718 126.307 44.4907 126.123 45.3947 126.123C46.2461 126.123 46.9693 126.266 47.5641 126.551C48.159 126.837 48.611 127.243 48.92 127.767C49.235 128.292 49.3924 128.913 49.3924 129.631C49.3924 130.027 49.3283 130.421 49.2 130.812C49.0717 131.202 48.888 131.593 48.6489 131.984C48.4156 132.369 48.1386 132.757 47.8178 133.147C47.4971 133.532 47.1442 133.923 46.7593 134.32L44.0038 137.355H49.8823ZM60.301 134.495V136.174H51.1158L51.0458 134.906L56.5394 126.298H58.2278L56.3995 129.43L53.2415 134.495H60.301ZM58.7089 126.298V139.035H56.6007V126.298H58.7089ZM74.8399 137.294V139.035H68.0778V137.294H74.8399ZM68.6989 126.298V139.035H66.5032V126.298H68.6989ZM73.9564 131.616V133.331H68.0778V131.616H73.9564ZM74.7962 126.298V128.047H68.0778V126.298H74.7962ZM86.4133 132.526V137.39C86.2325 137.629 85.9497 137.892 85.5648 138.177C85.1857 138.457 84.6813 138.699 84.0514 138.903C83.4216 139.108 82.6372 139.21 81.6982 139.21C80.8993 139.21 80.1674 139.075 79.5025 138.807C78.8377 138.533 78.2632 138.134 77.7792 137.609C77.301 137.084 76.9307 136.445 76.6682 135.693C76.4058 134.935 76.2746 134.072 76.2746 133.104V132.22C76.2746 131.258 76.3941 130.401 76.6332 129.648C76.8782 128.89 77.2281 128.249 77.683 127.724C78.1379 127.199 78.6861 126.802 79.3276 126.534C79.9749 126.26 80.7068 126.123 81.5233 126.123C82.5672 126.123 83.4303 126.298 84.1126 126.648C84.8008 126.992 85.3315 127.47 85.7048 128.082C86.078 128.695 86.3142 129.395 86.4133 130.182H84.2614C84.1914 129.739 84.0543 129.342 83.8502 128.992C83.6519 128.642 83.3662 128.368 82.9929 128.17C82.6255 127.966 82.1473 127.864 81.5583 127.864C81.0509 127.864 80.6048 127.96 80.2198 128.152C79.8349 128.345 79.5142 128.628 79.2576 129.001C79.0068 129.374 78.8173 129.829 78.689 130.366C78.5607 130.902 78.4965 131.514 78.4965 132.203V133.104C78.4965 133.803 78.5694 134.425 78.7152 134.967C78.8668 135.509 79.0826 135.967 79.3626 136.34C79.6483 136.714 79.9953 136.996 80.4036 137.189C80.8118 137.375 81.2725 137.469 81.7857 137.469C82.2873 137.469 82.6984 137.428 83.0192 137.346C83.3399 137.259 83.5936 137.157 83.7802 137.04C83.9727 136.918 84.1214 136.801 84.2264 136.69V134.162H81.5758V132.526H86.4133ZM93.6828 134.285H90.3674V132.544H93.6828C94.2601 132.544 94.7267 132.45 95.0824 132.264C95.4382 132.077 95.6977 131.821 95.861 131.494C96.0301 131.162 96.1147 130.783 96.1147 130.357C96.1147 129.954 96.0301 129.578 95.861 129.228C95.6977 128.873 95.4382 128.587 95.0824 128.371C94.7267 128.155 94.2601 128.047 93.6828 128.047H91.0409V139.035H88.8452V126.298H93.6828C94.6684 126.298 95.5053 126.473 96.1934 126.823C96.8874 127.167 97.4152 127.645 97.7768 128.257C98.1384 128.864 98.3191 129.558 98.3191 130.339C98.3191 131.162 98.1384 131.867 97.7768 132.456C97.4152 133.045 96.8874 133.497 96.1934 133.812C95.5053 134.127 94.6684 134.285 93.6828 134.285Z" fill="white"/>
<path d="M144.032 148.225C144.032 148.225 148.681 150.586 149.783 154.585C150.885 158.584 148.179 162.803 148.179 162.803C148.179 162.803 143.687 160.538 142.585 156.539C141.483 152.54 144.032 148.225 144.032 148.225Z" fill="white"/>
<path d="M126.575 154.242C126.575 154.242 127.048 149.05 130.355 146.546C133.662 144.043 138.582 144.995 138.582 144.995C138.582 144.995 138.141 150.006 134.834 152.51C131.527 155.014 126.575 154.242 126.575 154.242Z" fill="white"/>
<path d="M145.896 142.56C145.896 144.26 144.517 145.639 142.816 145.639C141.116 145.639 139.737 144.26 139.737 142.56C139.737 140.859 141.116 139.48 142.816 139.48C144.517 139.48 145.896 140.859 145.896 142.56Z" fill="white"/>
<path d="M139.736 157.215C139.736 158.446 138.738 159.445 137.506 159.445C136.275 159.445 135.276 158.446 135.276 157.215C135.276 155.983 136.275 154.985 137.506 154.985C138.738 154.985 139.736 155.983 139.736 157.215Z" fill="white"/>
<path d="M128.056 170.062H134.428V163.691C130.902 163.727 128.056 166.565 128.056 170.062Z" fill="white"/>
<path d="M140.799 170.062H134.428V163.691C137.954 163.727 140.799 166.565 140.799 170.062Z" fill="white"/>
<rect x="122.986" y="44.5278" width="39.4143" height="39.4143" rx="19.7072" fill="#181818"/>
<path fill-rule="evenodd" clip-rule="evenodd" d="M150.158 64.2349C150.158 68.3576 146.816 71.6997 142.693 71.6997C138.57 71.6997 135.228 68.3576 135.228 64.2349C135.228 60.1121 138.57 56.77 142.693 56.77C146.816 56.77 150.158 60.1121 150.158 64.2349ZM139.894 64.2349C139.894 63.9257 140.144 63.675 140.454 63.675H141.442C141.519 63.3609 141.559 63.0364 141.559 62.7082V62.2826C141.559 61.4025 142.272 60.6891 143.152 60.6891C144.033 60.6891 144.746 61.4025 144.746 62.2826V62.6541C144.746 62.9633 144.495 63.214 144.186 63.214C143.877 63.214 143.626 62.9633 143.626 62.6541V62.2826C143.626 62.0209 143.414 61.8088 143.152 61.8088C142.891 61.8088 142.679 62.0209 142.679 62.2826V62.7082C142.679 63.0347 142.648 63.3583 142.587 63.675H143.44C143.749 63.675 143.999 63.9257 143.999 64.2349C143.999 64.5441 143.749 64.7948 143.44 64.7948H142.238C142.035 65.2524 141.766 65.6815 141.435 66.067C141.235 66.3003 141.401 66.661 141.708 66.661H144.186C144.495 66.661 144.746 66.9116 144.746 67.2208C144.746 67.53 144.495 67.7807 144.186 67.7807H141.708C140.444 67.7807 139.762 66.2973 140.585 65.3378C140.732 65.167 140.863 64.9853 140.978 64.7948H140.454C140.144 64.7948 139.894 64.5441 139.894 64.2349Z" fill="#A7A4A4"/>
<g filter="url(#filter0_b_150_6130)">
<rect x="12.9597" y="36.9661" width="159.5" height="140.5" rx="23.7453" fill="#414141" fill-opacity="0.21"/>
<path fill-rule="evenodd" clip-rule="evenodd" d="M92.2861 80.6377C84.9094 80.6377 78.9293 86.6177 78.9293 93.9944V94.1918C73.7254 95.179 69.7905 99.7511 69.7905 105.242V122.114C69.7905 128.326 74.8263 133.362 81.0383 133.362H103.534C109.746 133.362 114.782 128.326 114.782 122.114V105.242C114.782 99.7511 110.847 95.179 105.643 94.1918V93.9944C105.643 86.6177 99.6628 80.6377 92.2861 80.6377ZM101.425 93.9944C101.425 88.9472 97.3333 84.8556 92.2861 84.8556C87.2388 84.8556 83.1473 88.9472 83.1473 93.9944H101.425ZM97.91 113.678C97.91 116.784 95.3921 119.302 92.2861 119.302C89.1801 119.302 86.6622 116.784 86.6622 113.678C86.6622 110.572 89.1801 108.054 92.2861 108.054C95.3921 108.054 97.91 110.572 97.91 113.678Z" fill="#959595"/>
</g>
<defs>
<filter id="filter0_b_150_6130" x="9.26446" y="33.2708" width="166.891" height="147.891" filterUnits="userSpaceOnUse" color-interpolation-filters="sRGB">
<feFlood flood-opacity="0" result="BackgroundImageFix"/>
<feGaussianBlur in="BackgroundImageFix" stdDeviation="1.84763"/>
<feComposite in2="SourceAlpha" operator="in" result="effect1_backgroundBlur_150_6130"/>
<feBlend mode="normal" in="SourceGraphic" in2="effect1_backgroundBlur_150_6130" result="shape"/>
</filter>
</defs>
</svg>
